<?xml version="1.0" encoding="UTF-8" standalone="no"?>
<svg
   xmlns:dc="http://purl.org/dc/elements/1.1/"
   xmlns:cc="http://creativecommons.org/ns#"
   xmlns:rdf="http://www.w3.org/1999/02/22-rdf-syntax-ns#"
   xmlns:svg="http://www.w3.org/2000/svg"
   xmlns="http://www.w3.org/2000/svg"
   xmlns:sodipodi="http://sodipodi.sourceforge.net/DTD/sodipodi-0.dtd"
   xmlns:inkscape="http://www.inkscape.org/namespaces/inkscape"
   width="25mm"
   height="25mm"
   viewBox="0 0 25 25"
   version="1.1"
   id="svg8"
   inkscape:version="0.92.5 (2060ec1f9f, 2020-04-08)"
   sodipodi:docname="thumbs.svg">
  <defs
     id="defs2" />
  <sodipodi:namedview
     id="base"
     pagecolor="#ffffff"
     bordercolor="#666666"
     borderopacity="1.0"
     inkscape:pageopacity="0.0"
     inkscape:pageshadow="2"
     inkscape:zoom="3.6203867"
     inkscape:cx="95.130878"
     inkscape:cy="92.738993"
     inkscape:document-units="mm"
     inkscape:current-layer="layer4"
     showgrid="false"
     inkscape:object-paths="true"
     showborder="true"
     inkscape:window-width="1920"
     inkscape:window-height="1017"
     inkscape:window-x="1912"
     inkscape:window-y="-8"
     inkscape:window-maximized="1" />
  <metadata
     id="metadata5">
    <rdf:RDF>
      <cc:Work
         rdf:about="">
        <dc:format>image/svg+xml</dc:format>
        <dc:type
           rdf:resource="http://purl.org/dc/dcmitype/StillImage" />
        <dc:title></dc:title>
      </cc:Work>
    </rdf:RDF>
  </metadata>
  <g
     inkscape:label="Layer 1"
     inkscape:groupmode="layer"
     id="layer1"
     transform="translate(0,-272)" />
  <g
     inkscape:groupmode="layer"
     id="layer3"
     inkscape:label="Layer 2"
     style="display:inline"
     transform="translate(0,-272)">
    <path
       style="fill:none;stroke:#FFFFFF;stroke-width:1.46500003;stroke-linecap:round;stroke-linejoin:round;stroke-miterlimit:4;stroke-dasharray:none;stroke-opacity:1"
       d="m 8.190946,281.27384 0.03544,14.18592 -6.886251,0.0118 0.01181,-14.22135 z"
       id="path31"
       inkscape:connector-curvature="0"
       sodipodi:nodetypes="ccccc" />
  </g>
  <g
     inkscape:groupmode="layer"
     id="layer4"
     inkscape:label="Layer 3"
     style="display:inline"
     transform="translate(0,-272)">
    <path
       style="fill:none;stroke:#FFFFFF;stroke-width:1.46500003;stroke-linecap:round;stroke-linejoin:round;stroke-miterlimit:4;stroke-dasharray:none;stroke-opacity:1"
       d="m 21.640479,284.42994 c 0.350965,0.004 0.356966,0.004 1.077431,0.008 0.322653,-0.17338 0.654252,-0.37863 0.868624,-0.74334 0.159116,-0.23133 0.288281,-0.66259 0.309031,-1.1192 -0.04599,-0.3197 -0.182521,-0.78551 -0.35079,-1.1526 -0.324634,-0.27069 -0.765422,-0.66079 -1.511453,-0.6404 -2.196986,0.008 -4.393973,0.0157 -6.590959,0.0236 0.322479,-0.6148 1.169519,-2.47134 1.41741,-3.02381 0.10467,-1.00496 0.14309,-2.56033 0.04725,-3.35454 -0.21655,-0.52169 -0.763828,-1.21464 -1.748143,-1.22842 -0.659634,0.0524 -0.982068,0.21947 -1.41741,0.59058 -0.498738,0.65727 -0.66742,1.90786 -0.826823,2.74033 -0.21604,0.45248 -0.54334,1.06306 -0.54334,1.06306 -0.498672,0.64838 -1.070933,1.38591 -1.606399,2.07887 l -1.559154,2.17336 -0.868223,2.17489"
       id="path4554"
       inkscape:connector-curvature="0"
       sodipodi:nodetypes="cccccccccccccccc" />
    <path
       style="fill:none;stroke:#FFFFFF;stroke-width:1.46500003;stroke-linecap:round;stroke-linejoin:miter;stroke-miterlimit:4;stroke-dasharray:none;stroke-opacity:1"
       d="m 20.674972,287.94073 c 0.452783,-0.004 0.905567,-0.008 1.35835,-0.0118 0.461643,-0.0699 0.661128,-0.3727 0.862258,-0.66146 0.214583,-0.30317 0.242458,-0.63816 0.271672,-0.98038 0.03445,-0.3701 -0.0707,-0.63529 -0.188989,-0.89769 -0.24135,-0.33703 -0.411,-0.6217 -0.672674,-0.95366"
       id="path4560"
       inkscape:connector-curvature="0"
       sodipodi:nodetypes="cccccc" />
    <path
       style="display:inline;fill:none;stroke:#FFFFFF;stroke-width:1.46500003;stroke-linecap:round;stroke-linejoin:miter;stroke-miterlimit:4;stroke-dasharray:none;stroke-opacity:1"
       d="m 19.580665,291.44106 c 0.452783,-0.004 0.905567,-0.008 1.35835,-0.0118 0.461644,-0.0699 0.661128,-0.3727 0.862259,-0.66146 0.214582,-0.30317 0.242457,-0.63815 0.271672,-0.98038 0.03445,-0.3701 -0.0707,-0.63529 -0.18899,-0.89769 -0.24135,-0.33703 -0.410999,-0.6217 -0.672673,-0.95366"
       id="path4560-7"
       inkscape:connector-curvature="0"
       sodipodi:nodetypes="cccccc" />
    <path
       style="display:inline;fill:none;stroke:#FFFFFF;stroke-width:1.46500003;stroke-linecap:round;stroke-linejoin:miter;stroke-miterlimit:4;stroke-dasharray:none;stroke-opacity:1"
       d="m 8.811038,294.94193 c 0.452783,-0.004 10.518919,-0.008 10.971702,-0.0118 0.461643,-0.0699 0.661128,-0.3727 0.862258,-0.66146 0.214583,-0.30317 0.242458,-0.63815 0.271672,-0.98038 0.03445,-0.3701 -0.0707,-0.63529 -0.188989,-0.89769 -0.24135,-0.33703 -0.411,-0.6217 -0.672674,-0.95366"
       id="path4560-1"
       inkscape:connector-curvature="0"
       sodipodi:nodetypes="cccccc" />
  </g>
</svg>
