<?xml version="1.0" encoding="UTF-8"?>
<svg width="25mm" height="25mm" version="1.1" viewBox="0 0 25 25" xmlns="http://www.w3.org/2000/svg" xmlns:cc="http://creativecommons.org/ns#" xmlns:dc="http://purl.org/dc/elements/1.1/" xmlns:rdf="http://www.w3.org/1999/02/22-rdf-syntax-ns#">
 <metadata>
  <rdf:RDF>
   <cc:Work rdf:about="">
    <dc:format>image/svg+xml</dc:format>
    <dc:type rdf:resource="http://purl.org/dc/dcmitype/StillImage"/>
    <dc:title/>
   </cc:Work>
  </rdf:RDF>
 </metadata>
 <g transform="translate(0,-272)">
  <path d="m8.191 281.3 0.03544 14.19-6.886 0.0118 0.01181-14.22z" fill="none" stroke="#fff" stroke-linecap="round" stroke-linejoin="round" stroke-width="1.465"/>
 </g>
 <g transform="translate(0,-272)" fill="none" stroke="#fff" stroke-linecap="round" stroke-width="1.465">
  <path d="m21.64 284.4c0.351 4e-3 0.357 4e-3 1.077 8e-3 0.3227-0.1734 0.6543-0.3786 0.8686-0.7433 0.1591-0.2313 0.2883-0.6626 0.309-1.119-0.04599-0.3197-0.1825-0.7855-0.3508-1.153-0.3246-0.2707-0.7654-0.6608-1.511-0.6404-2.197 8e-3 -4.394 0.0157-6.591 0.0236 0.3225-0.6148 1.17-2.471 1.417-3.024 0.1047-1.005 0.1431-2.56 0.04725-3.355-0.2166-0.5217-0.7638-1.215-1.748-1.228-0.6596 0.0524-0.9821 0.2195-1.417 0.5906-0.4987 0.6573-0.6674 1.908-0.8268 2.74-0.216 0.4525-0.5433 1.063-0.5433 1.063-0.4987 0.6484-1.071 1.386-1.606 2.079l-1.559 2.173-0.8682 2.175" stroke-linejoin="round"/>
  <g>
   <path d="m20.67 287.9c0.4528-4e-3 0.9056-8e-3 1.358-0.0118 0.4616-0.0699 0.6611-0.3727 0.8623-0.6615 0.2146-0.3032 0.2425-0.6382 0.2717-0.9804 0.03445-0.3701-0.0707-0.6353-0.189-0.8977-0.2414-0.337-0.411-0.6217-0.6727-0.9537"/>
   <path d="m19.58 291.4c0.4528-4e-3 0.9056-8e-3 1.358-0.0118 0.4616-0.0699 0.6611-0.3727 0.8623-0.6615 0.2146-0.3032 0.2425-0.6382 0.2717-0.9804 0.03445-0.3701-0.0707-0.6353-0.189-0.8977-0.2414-0.337-0.411-0.6217-0.6727-0.9537"/>
   <path d="m8.811 294.9c0.4528-4e-3 10.52-8e-3 10.97-0.0118 0.4616-0.0699 0.6611-0.3727 0.8623-0.6615 0.2146-0.3032 0.2425-0.6382 0.2717-0.9804 0.03445-0.3701-0.0707-0.6353-0.189-0.8977-0.2414-0.337-0.411-0.6217-0.6727-0.9537"/>
  </g>
 </g>
</svg>
